<?xml version="1.0" encoding="UTF-8"?>
<svg version="1.1" xmlns="http://www.w3.org/2000/svg" width="1024" height="1024">
<path d="M0 0 C337.92 0 675.84 0 1024 0 C1024 337.92 1024 675.84 1024 1024 C686.08 1024 348.16 1024 0 1024 C0 686.08 0 348.16 0 0 Z " fill="#FEFEFE" transform="translate(0,0)"/>
<path d="M0 0 C13.53 0 27.06 0 41 0 C41 23.76 41 47.52 41 72 C67.4 72 93.8 72 121 72 C121 48.24 121 24.48 121 0 C134.86 0 148.72 0 163 0 C163 60.72 163 121.44 163 184 C149.14 184 135.28 184 121 184 C121 159.25 121 134.5 121 109 C94.6 109 68.2 109 41 109 C41 133.75 41 158.5 41 184 C27.47 184 13.94 184 0 184 C0 123.28 0 62.56 0 0 Z " fill="#081033" transform="translate(350,421)"/>
<path d="M0 0 C2.16100432 1.57235781 4.05308247 3.1643349 6 5 C4.28436409 8.82502432 1.88368309 12.11990413 -0.5625 15.5 C-0.99997559 16.10859863 -1.43745117 16.71719727 -1.88818359 17.34423828 C-6.17777338 23.2904334 -10.57015673 29.15774293 -15 35 C-17.528906 33.74851575 -20.03527751 32.46179282 -22.5390625 31.16015625 C-34.61846519 24.92066082 -44.99978534 20.28468782 -59 22 C-63.94148914 23.577071 -67.67462543 25.95570653 -70.5625 30.3125 C-72.16917471 34.43396992 -73.13973702 37.69707981 -72 42 C-65.96903688 54.37553632 -45.80349737 58.92345234 -33.97143555 63.71240234 C-14.94931015 71.45355709 0.35877469 79.88798979 9.0546875 99.32421875 C11.15295833 105.26353908 11.18260692 111.15100773 11.1875 117.375 C11.19974609 118.18710937 11.21199219 118.99921875 11.22460938 119.8359375 C11.2582237 133.81949532 5.29574573 146.46113854 -4.1875 156.625 C-12.19958684 164.19878888 -21.66565062 168.50031993 -32 172 C-33.03833984 172.35384766 -33.03833984 172.35384766 -34.09765625 172.71484375 C-48.35101454 177.1629305 -66.6407484 176.34978083 -81 173 C-81.91910156 172.82855469 -82.83820313 172.65710938 -83.78515625 172.48046875 C-97.63902432 169.59036168 -111.62686256 162.69861005 -122 153 C-122.70294235 151.68543 -123.37652709 150.35406933 -124 149 C-108.93673978 128.38009868 -108.93673978 128.38009868 -102 120 C-101.35675781 120.36351562 -100.71351563 120.72703125 -100.05078125 121.1015625 C-82.99253786 130.59188336 -63.16526517 140.53422099 -43.1015625 135.234375 C-38.16735348 133.16889216 -33.43641496 130.46242564 -30.6875 125.75 C-29.38979678 120.55918712 -29.21937885 116.6970025 -31.4375 111.875 C-37.22246409 105.38455248 -44.94608197 101.86210413 -52.875 98.625 C-53.77976074 98.24561279 -54.68452148 97.86622559 -55.61669922 97.4753418 C-58.40712707 96.30695639 -61.20254844 95.15145633 -64 94 C-103.47253876 77.74274041 -103.47253876 77.74274041 -111.8125 57.75 C-116.13527908 44.9047799 -115.59417858 30.3800165 -110 18 C-102.10469129 2.7002826 -89.54933003 -6.92138085 -73.4375 -12.4375 C-48.45012913 -20.16591013 -21.71891979 -13.36070888 0 0 Z " fill="#081033" transform="translate(321,433)"/>
<path d="M0 0 C33.66 0 67.32 0 102 0 C102 12.21 102 24.42 102 37 C81.21 37 60.42 37 39 37 C39 50.2 39 63.4 39 77 C57.48 77 75.96 77 95 77 C95 88.55 95 100.1 95 112 C76.52 112 58.04 112 39 112 C39 135.76 39 159.52 39 184 C26.13 184 13.26 184 0 184 C0 123.28 0 62.56 0 0 Z " fill="#070F32" transform="translate(616,421)"/>
<path d="M0 0 C39.93 0 79.86 0 121 0 C121 12.21 121 24.42 121 37 C108.46 37 95.92 37 83 37 C83 85.51 83 134.02 83 184 C68.81 184 54.62 184 40 184 C40 135.49 40 86.98 40 37 C26.8 37 13.6 37 0 37 C0 24.79 0 12.58 0 0 Z " fill="#081033" transform="translate(733,421)"/>
<path d="M0 0 C13.2 0 26.4 0 40 0 C40 42.9 40 85.8 40 130 C26.8 130 13.6 130 0 130 C0 87.1 0 44.2 0 0 Z " fill="#080F33" transform="translate(544,476)"/>
<path d="M0 0 C4.44428645 3.45352195 7.58275917 7.18176856 9.02734375 12.6796875 C10.12718984 21.96612386 9.70238746 30.00760309 4.02734375 37.6796875 C-0.92177467 43.45161221 -6.96254277 46.11161164 -14.453125 46.9609375 C-22.06791749 47.24427862 -28.75635334 45.72707535 -34.78515625 40.9296875 C-39.96310126 36.1001425 -42.6811062 30.56064882 -43.2109375 23.5078125 C-43.49027612 10.04075047 -43.49027612 10.04075047 -38.97265625 4.6796875 C-27.47999203 -6.51316808 -13.61669679 -9.11374953 0 0 Z " fill="#FB9734" transform="translate(581.97265625,417.3203125)"/>
<path d="M0 0 C13.53 0 27.06 0 41 0 C41 23.76 41 47.52 41 72 C40.34 72 39.68 72 39 72 C39 48.9 39 25.8 39 2 C26.13 2 13.26 2 0 2 C0 1.34 0 0.68 0 0 Z " fill="#191D35" transform="translate(350,421)"/>
<path d="M0 0 C5.53846154 0.61538462 5.53846154 0.61538462 7.875 2.5625 C8.431875 3.2740625 8.431875 3.2740625 9 4 C8.34 5.32 7.68 6.64 7 8 C4.50638429 6.79618552 2.31856917 5.54571278 0 4 C0 2.68 0 1.36 0 0 Z " fill="#121632" transform="translate(299,460)"/>
<path d="M0 0 C4.1724106 0.51881113 6.25416821 1.71151274 9.3125 4.5625 C10.00988281 5.20316406 10.70726562 5.84382813 11.42578125 6.50390625 C11.94527344 6.99761719 12.46476563 7.49132812 13 8 C12.67 8.66 12.34 9.32 12 10 C11.01 9.67 10.02 9.34 9 9 C9 8.01 9 7.02 9 6 C8.401875 5.896875 7.80375 5.79375 7.1875 5.6875 C4.67667019 4.89838206 3.71824704 3.95255346 2 2 C1.34 1.34 0.68 0.68 0 0 Z " fill="#E8984B" transform="translate(574,414)"/>
<path d="M0 0 C2.64752004 2.57784846 4.94432065 4.91648098 7 8 C4 8 4 8 2.375 6.8125 C0.68587944 4.58593199 0.37047118 2.74148672 0 0 Z " fill="#191D33" transform="translate(247,474)"/>
<path d="M0 0 C2.97 0.33 5.94 0.66 9 1 C9.33 1.99 9.66 2.98 10 4 C10.66 4 11.32 4 12 4 C11.67 4.66 11.34 5.32 11 6 C9.72791378 5.37755401 8.45738118 4.75193233 7.1875 4.125 C6.47980469 3.77695312 5.77210938 3.42890625 5.04296875 3.0703125 C3 2 3 2 0 0 Z " fill="#FDEBC8" transform="translate(571,412)"/>
<path d="M0 0 C2.475 0.495 2.475 0.495 5 1 C5.33 3.31 5.66 5.62 6 8 C3.87961365 5.38485683 1.86908256 2.80362384 0 0 Z " fill="#FEF2DA" transform="translate(583,418)"/>
<path d="M0 0 C1.32 0.33 2.64 0.66 4 1 C4 1.66 4 2.32 4 3 C5.32 3.33 6.64 3.66 8 4 C7.67 4.99 7.34 5.98 7 7 C5.83040013 6.02433888 4.66438823 5.044375 3.5 4.0625 C2.8503125 3.51722656 2.200625 2.97195313 1.53125 2.41015625 C1.0259375 1.94480469 0.520625 1.47945313 0 1 C0 0.67 0 0.34 0 0 Z " fill="#EB9D56" transform="translate(544,454)"/>
<path d="M0 0 C0.66 0 1.32 0 2 0 C0.8141763 3.37503669 -0.27573689 5.64722731 -3 8 C-3 6.35 -3 4.7 -3 3 C-2.01 3 -1.02 3 0 3 C0 2.01 0 1.02 0 0 Z " fill="#E99748" transform="translate(587,448)"/>
</svg>
